<svg preserveAspectRatio="none" width="100%" height="100%" overflow="visible" style="display: block;" viewBox="0 0 28 20" fill="none" xmlns="http://www.w3.org/2000/svg">
<g id="flags / IN">
<rect id="Mask" x="0.25" y="0.25" width="27.5" height="19.5" rx="1.75" fill="var(--fill-0, white)" stroke="var(--stroke-0, #F5F5F5)" stroke-width="0.5"/>
<mask id="mask0_0_91" style="mask-type:luminance" maskUnits="userSpaceOnUse" x="0" y="0" width="28" height="20">
<rect id="Mask_2" x="0.25" y="0.25" width="27.5" height="19.5" rx="1.75" fill="var(--fill-0, white)" stroke="var(--stroke-0, white)" stroke-width="0.5"/>
</mask>
<g mask="url(#mask0_0_91)">
<path id="Rectangle 2" fill-rule="evenodd" clip-rule="evenodd" d="M0 6.66667H28V0H0V6.66667Z" fill="var(--fill-0, #FFA44A)"/>
<path id="Rectangle 2_2" fill-rule="evenodd" clip-rule="evenodd" d="M0 20H28V13.3333H0V20Z" fill="var(--fill-0, #1A9F0B)"/>
<path id="Oval 1" d="M14 7.66699C15.2887 7.66699 16.333 8.71134 16.333 10C16.333 11.2887 15.2887 12.333 14 12.333C12.7113 12.333 11.667 11.2887 11.667 10C11.667 8.71134 12.7113 7.66699 14 7.66699Z" fill="var(--fill-0, #181A93)" fill-opacity="0.15" stroke="var(--stroke-0, #181A93)" stroke-width="0.666667"/>
<path id="Oval 8" fill-rule="evenodd" clip-rule="evenodd" d="M14 10.6667C14.3682 10.6667 14.6667 10.3682 14.6667 10C14.6667 9.63181 14.3682 9.33333 14 9.33333C13.6318 9.33333 13.3333 9.63181 13.3333 10C13.3333 10.3682 13.6318 10.6667 14 10.6667Z" fill="var(--fill-0, #181A93)"/>
</g>
</g>
</svg>
